<svg width="714" height="100" viewBox="0 0 714 100" fill="none" xmlns="http://www.w3.org/2000/svg">
<path d="M0.207031 3.42578C21.418 2.44922 36.6523 1.96094 45.9102 1.96094C63.1367 1.96094 75.5 3.91406 83 7.82031C89.7188 11.3359 93.0781 16.668 93.0781 23.8164C93.0781 28.1133 91.9453 31.7266 89.6797 34.6562C87.4531 37.5469 84.0352 40.0469 79.4258 42.1562C85.207 44.1094 89.6602 46.8828 92.7852 50.4766C96.8867 55.2031 98.9375 61.6875 98.9375 69.9297C98.9375 87.7031 85.1875 97.0977 57.6875 98.1133C53.7422 98.2695 50.6758 98.3477 48.4883 98.3477C46.3008 98.3477 44.4062 98.3281 42.8047 98.2891C41.2031 98.25 39.3672 98.1914 37.2969 98.1133C35.2656 98.0742 33.0391 98.0156 30.6172 97.9375C28.2344 97.8984 25.8125 97.8203 23.3516 97.7031C20.8906 97.625 18.4688 97.5469 16.0859 97.4688C13.7031 97.3906 11.4766 97.293 9.40625 97.1758C7.33594 97.0977 5.5 97.0391 3.89844 97C2.29688 96.9219 1.06641 96.8438 0.207031 96.7656V3.42578ZM59.9727 60.6133C59.9727 57.332 58.0391 55.6914 54.1719 55.6914C51.2422 55.6523 46.6914 57.3516 40.5195 60.7891C39.0742 61.5703 37.8438 62.2344 36.8281 62.7812V77.5469C37.375 77.3516 37.8828 77.1562 38.3516 76.9609C38.8594 76.7656 39.9922 76.3359 41.75 75.6719C48 73.3281 52.2578 71.3945 54.5234 69.8711C58.1953 67.4102 60.0117 64.3242 59.9727 60.6133ZM36.8281 46.2578C43.4688 43.6797 47.8828 41.6289 50.0703 40.1055C54.6016 37.0586 56.8672 33.7773 56.8672 30.2617C56.8672 27.8008 55.5781 26.2188 53 25.5156C52.2969 25.3203 51.5547 25.2227 50.7734 25.2227C49.9922 25.2227 49.0742 25.3594 48.0195 25.6328C47.0039 25.9062 45.9883 26.2578 44.9727 26.6875C43.4102 27.2734 41.6719 28.1328 39.7578 29.2656C37.8828 30.3594 36.9062 30.9453 36.8281 31.0234V46.2578ZM102.863 97L149.387 8.17188C150.988 5.00781 153.938 2.89844 158.234 1.84375C159.484 1.53125 161.027 1.375 162.863 1.375C164.699 1.375 166.691 1.90234 168.84 2.95703C171.027 3.97266 172.746 5.59375 173.996 7.82031L223.918 97H176.398L172.707 87.7422H147.395L144.23 97H102.863ZM150.266 69.168H169.191L160.227 43.8555L150.266 69.168ZM232.824 3.42578C254.035 2.44922 269.27 1.96094 278.527 1.96094C295.754 1.96094 308.117 3.91406 315.617 7.82031C322.336 11.3359 325.695 16.668 325.695 23.8164C325.695 28.1133 324.562 31.7266 322.297 34.6562C320.07 37.5469 316.652 40.0469 312.043 42.1562C317.824 44.1094 322.277 46.8828 325.402 50.4766C329.504 55.2031 331.555 61.6875 331.555 69.9297C331.555 87.7031 317.805 97.0977 290.305 98.1133C286.359 98.2695 283.293 98.3477 281.105 98.3477C278.918 98.3477 277.023 98.3281 275.422 98.2891C273.82 98.25 271.984 98.1914 269.914 98.1133C267.883 98.0742 265.656 98.0156 263.234 97.9375C260.852 97.8984 258.43 97.8203 255.969 97.7031C253.508 97.625 251.086 97.5469 248.703 97.4688C246.32 97.3906 244.094 97.293 242.023 97.1758C239.953 97.0977 238.117 97.0391 236.516 97C234.914 96.9219 233.684 96.8438 232.824 96.7656V3.42578ZM292.59 60.6133C292.59 57.332 290.656 55.6914 286.789 55.6914C283.859 55.6523 279.309 57.3516 273.137 60.7891C271.691 61.5703 270.461 62.2344 269.445 62.7812V77.5469C269.992 77.3516 270.5 77.1562 270.969 76.9609C271.477 76.7656 272.609 76.3359 274.367 75.6719C280.617 73.3281 284.875 71.3945 287.141 69.8711C290.812 67.4102 292.629 64.3242 292.59 60.6133ZM269.445 46.2578C276.086 43.6797 280.5 41.6289 282.688 40.1055C287.219 37.0586 289.484 33.7773 289.484 30.2617C289.484 27.8008 288.195 26.2188 285.617 25.5156C284.914 25.3203 284.172 25.2227 283.391 25.2227C282.609 25.2227 281.691 25.3594 280.637 25.6328C279.621 25.9062 278.605 26.2578 277.59 26.6875C276.027 27.2734 274.289 28.1328 272.375 29.2656C270.5 30.3594 269.523 30.9453 269.445 31.0234V46.2578ZM367.531 60.4961L338.996 3.42578H380.773L390.09 22.5859L399.699 3.42578H434.621L405.5 60.4961V97H367.531V60.4961Z" fill="white"/>
<path d="M478.273 80.0664L513.957 50.1836C518.762 46.1602 521.164 41.9609 521.164 37.5859C521.164 35.2812 520.402 33.3867 518.879 31.9023C517.395 30.418 515.52 29.6758 513.254 29.6758C510.988 29.6758 508.742 30.0469 506.516 30.7891C499.094 33.2109 491.887 38.1523 484.895 45.6133L471.125 25.8672C475.891 17.9766 483 11.8438 492.453 7.46875C501.906 3.09375 511.984 0.90625 522.688 0.90625C533.43 0.90625 542.453 3.42578 549.758 8.46484C557.805 14.0117 561.828 21.6875 561.828 31.4922C561.828 39.3047 558.488 46.5703 551.809 53.2891C548.332 56.8047 544.777 59.9102 541.145 62.6055C537.512 65.2617 534.68 67.3711 532.648 68.9336H562.414V97H478.273V80.0664ZM591.77 64.7734C597.238 64.7344 601.359 66.2773 604.133 69.4023C606.945 72.4883 608.352 76.3555 608.352 81.0039C608.352 85.6523 606.633 89.8516 603.195 93.6016C599.758 97.3125 595.188 99.1484 589.484 99.1094C583.781 99.1094 579.562 97.6055 576.828 94.5977C574.094 91.5508 572.727 87.7422 572.727 83.1719C572.727 78.5625 574.543 74.3438 578.176 70.5156C581.809 66.6875 586.34 64.7734 591.77 64.7734ZM665.363 99.168C658.254 99.168 651.75 97.9375 645.852 95.4766C639.992 92.9766 634.953 89.5195 630.734 85.1055C621.828 75.7695 617.375 63.875 617.375 49.4219C617.375 34.9297 621.73 23.2109 630.441 14.2656C639.191 5.28125 650.832 0.789062 665.363 0.789062C679.895 0.789062 691.516 5.28125 700.227 14.2656C708.977 23.2109 713.352 35.0273 713.352 49.7148C713.352 56.8242 712.18 63.4062 709.836 69.4609C707.492 75.4766 704.211 80.6914 699.992 85.1055C695.773 89.5195 690.715 92.9766 684.816 95.4766C678.957 97.9375 672.473 99.168 665.363 99.168ZM654.934 51.5312C654.934 64.0703 658.41 70.3398 665.363 70.3398C672.316 70.3398 675.793 64.0703 675.793 51.5312C675.793 45.4375 675.441 41.1602 674.738 38.6992C674.074 36.2383 673.352 34.4023 672.57 33.1914C670.891 30.5352 668.488 29.207 665.363 29.207C658.723 29.2461 655.266 35.2031 654.992 47.0781C654.953 48.7188 654.934 50.2031 654.934 51.5312Z" fill="#0085FF"/>
</svg>
