<svg width="915" height="362" viewBox="0 0 915 362" fill="none" xmlns="http://www.w3.org/2000/svg">
<path d="M336.8 181.6V155.7H350.7C359.5 155.7 364.8 160.7 364.8 168.7C364.8 176.5 359.4 181.6 350.7 181.6H336.8ZM352.8 196.8C370.6 196.8 382.5 185.1 382.5 168.6C382.5 152.1 370.6 140.5 352.8 140.5H319.1V230.8H336.7V196.8H352.8Z" fill="white"/>
<path d="M411.101 194C411.501 187.1 415.701 181.8 422.801 181.8C430.901 181.8 434.401 187.3 434.401 194.3V230.9H451.401V191.4C451.401 177.6 444.001 166.6 428.101 166.6C422.101 166.6 415.201 168.6 411.201 173.5V138.7H394.301V230.9H411.201V194H411.101Z" fill="white"/>
<path d="M464.801 213.7C464.801 223.5 473.001 232.6 486.301 232.6C495.601 232.6 501.601 228.3 504.801 223.3C504.801 225.8 505.001 228.3 505.401 230.8H520.901C520.401 227.5 520.201 224.2 520.101 220.9V190C520.101 177.4 512.701 166.2 492.801 166.2C476.001 166.2 466.901 177 465.901 186.8L480.901 190C481.401 184.5 485.501 179.8 492.901 179.8C500.001 179.8 503.501 183.5 503.501 188C503.501 190.2 502.401 192 498.801 192.5L483.401 194.8C473.001 196.2 464.801 202.5 464.801 213.7ZM489.901 219.9C484.401 219.9 481.801 216.3 481.801 212.6C481.801 207.8 485.201 205.3 489.601 204.7L503.701 202.5V205.3C503.601 216.5 497.001 219.9 489.901 219.9Z" fill="white"/>
<path d="M554.2 194.7C554.2 187.4 558.5 181.7 565.9 181.7C574 181.7 577.5 187.2 577.5 194.2V230.8H594.5V191.3C594.5 177.5 587.4 166.5 571.8 166.5C565 166.5 557.5 169.4 553.7 175.9V168.2H537.2V230.9H554.1V194.7H554.2Z" fill="white"/>
<path d="M632.5 149.4H617.2V158.2C617.2 163.8 614.1 168.1 607.5 168.1H604.3V183.1H615.6V212.3C615.6 224.4 623.2 231.7 635.5 231.7C638.8 231.8 642 231.3 645.1 230.2V216.3C643.4 216.7 641.6 216.8 639.9 216.8C635.1 216.8 632.5 215 632.5 209.5V183.3H645.1V168.3H632.5V149.4Z" fill="white"/>
<path d="M687.1 217.3C678.8 217.3 671.2 211.2 671.2 199.5C671.2 187.8 678.8 181.7 687.1 181.7C695.4 181.7 703 187.7 703 199.5C703 211.3 695.4 217.3 687.1 217.3ZM687.1 166.2C668.4 166.2 654.2 180.1 654.2 199.4C654.2 218.7 668.4 232.6 687.1 232.6C705.8 232.6 720 218.6 720 199.4C720 180.2 705.8 166.1 687.1 166.2Z" fill="white"/>
<path d="M750.3 230.8V194.1C750.3 187.2 754.6 181.7 762 181.7C769.6 181.7 773.1 186.8 773.1 193.5V230.7H789.9V194C789.9 187.2 794.2 181.6 801.5 181.6C809.3 181.6 812.6 186.7 812.6 193.4V230.6H829V190C829 173.2 817.9 166.2 806.3 166.2C798 166.2 791.4 169 786.4 176.7C783.2 169.9 776.3 166.2 767.8 166.2C760.9 166.2 752.9 169.5 749.5 175.6V168H733.3V230.7L750.3 230.8Z" fill="white"/>
<path d="M172.1 270.2C219.652 270.2 258.2 231.652 258.2 184.1C258.2 136.548 219.652 98 172.1 98C124.548 98 86 136.548 86 184.1C86 231.652 124.548 270.2 172.1 270.2Z" fill="url(#paint0_linear_49_112)"/>
<path d="M233.8 185.2H218.6C218.6 154.1 193.5 128.9 162.5 128.9C131.8 128.9 106.8 153.4 106.2 184.1C105.6 215.5 135.2 242.8 166.7 242.8H170.7C198.5 242.8 235.8 221.1 241.6 194.7C242.5 190.4 239.7 186.3 235.4 185.4C234.9 185.2 234.4 185.2 233.8 185.2ZM139.8 186.6C139.8 190.8 136.4 194.1 132.2 194.1C128 194.1 124.7 190.7 124.7 186.6V174.4C124.7 170.2 128.1 166.9 132.3 166.9C136.5 166.9 139.8 170.3 139.8 174.4V186.6ZM166 186.6C166 190.8 162.6 194.1 158.4 194.1C154.2 194.1 150.9 190.7 150.9 186.6V174.4C150.9 170.2 154.3 166.9 158.5 166.9C162.7 166.9 166 170.3 166 174.4V186.6Z" fill="url(#paint1_linear_49_112)"/>
<defs>
<linearGradient id="paint0_linear_49_112" x1="172.14" y1="98" x2="172.14" y2="270.28" gradientUnits="userSpaceOnUse">
<stop stop-color="#534BB1"/>
<stop offset="1" stop-color="#551BF9"/>
</linearGradient>
<linearGradient id="paint1_linear_49_112" x1="173.974" y1="129.16" x2="173.974" y2="242.79" gradientUnits="userSpaceOnUse">
<stop stop-color="white"/>
<stop offset="1" stop-color="white" stop-opacity="0.82"/>
</linearGradient>
</defs>
</svg>
