<svg width="2856" height="1763" viewBox="0 0 2856 1763" fill="none" xmlns="http://www.w3.org/2000/svg">
<path fill-rule="evenodd" clip-rule="evenodd" d="M998.9 951L970.1 901H928V951H903.2V800.8H977.9C987 800.7 996 803.2 1003.8 807.9C1011.6 812.6 1018 819.3 1022.3 827.4C1026.6 835.5 1028.5 844.6 1028 853.7C1027.5 862.8 1024.5 871.7 1019.3 879.2C1013.9 887.2 1006.3 893.4 997.4 897.1L1028 951H998.9ZM977.8 826.3H928V876.2H977.9C981.2 876.2 984.4 875.5 987.4 874.2C990.4 872.9 993.1 871 995.3 868.6C998.7 865.1 1001.1 860.7 1002 855.8C1002.9 851 1002.4 846 1000.6 841.4C998.7 836.9 995.6 833 991.5 830.2C987.4 827.4 982.7 825.9 977.8 825.9V826.3ZM1243.4 800.8L1168.5 951H1196.3L1243.3 856.9L1290.2 951H1318L1243.4 800.8ZM1558.6 800.8H1526.9L1484.3 856.2L1441.9 800.8H1410.1L1472.5 880.9V951H1497.3V879.7L1558.6 800.8ZM1685.7 800.8H1735.4C1755.2 800.9 1774.1 808.9 1788 823C1802 837 1809.9 856.1 1810 875.9C1809.9 895.8 1802 914.8 1788 928.9C1774 943 1755.1 950.9 1735.3 951H1685.6V800.8H1685.7ZM1735.4 925.5C1748.6 925.5 1761.2 920.2 1770.5 910.8C1779.8 901.4 1785.1 888.7 1785.1 875.5C1784.9 862.3 1779.7 849.6 1770.4 840.3C1761.1 831 1748.5 825.6 1735.4 825.5H1710.3V925.5H1735.4ZM1975.9 800.8H1951.1V951H1975.9V800.8ZM2241.3 888.3C2241.4 896.6 2239.9 904.8 2236.7 912.4C2233.6 920 2228.9 926.9 2222.9 932.6C2214.2 941.4 2203.1 947.3 2191 949.7C2178.9 952.1 2166.4 950.9 2155 946.1C2143.6 941.4 2133.9 933.3 2127.1 923C2120.3 912.7 2116.7 900.6 2116.7 888.2V800.8H2141.5V888.2C2141.5 898.2 2145.4 907.7 2152.5 914.7C2159.5 921.7 2169 925.7 2178.9 925.7C2188.8 925.7 2198.3 921.7 2205.3 914.7C2212.3 907.7 2216.2 898.1 2216.2 888.2V800.8H2241.2V888.3H2241.3ZM2407 951V861.2L2457 911.3L2506.8 861.2V951H2532V800.8L2457 875.9L2382.3 800.8V951H2407Z" fill="white"/>
<path d="M718.9 796.1V1019.4L471.8 1162.8L224.6 1019.4V732.6L471.9 589L661.8 699.3L690.5 682.7L471.9 555.8L196 715.9V1036L471.9 1196.1L747.8 1036V779.5L718.9 796.1Z" fill="url(#paint0_linear_49_106)"/>
<path d="M402.7 1019.6H361.4V880.2H499.2C512.2 880.1 524.7 874.8 533.9 865.4C543.1 856.1 548.2 843.5 548.3 830.4C548.4 823.9 547.1 817.5 544.6 811.5C542.1 805.5 538.4 800.1 533.8 795.6C529.3 791 523.9 787.3 518 784.8C512.1 782.3 505.7 781 499.2 781.1H361.4V738.7H499.3C523.4 738.8 546.6 748.6 563.6 765.7C580.7 782.9 590.3 806.1 590.5 830.4C590.6 849 585 867.1 574.4 882.3C564.6 896.8 550.8 908.2 534.7 915C518.7 920.1 502.1 922.6 485.4 922.5H402.7V1019.6Z" fill="url(#paint1_linear_49_106)"/>
<path d="M589.5 1016.1H541.3L504.1 950.9C518.8 950 533.3 947 547.2 942L589.5 1016.1Z" fill="url(#paint2_linear_49_106)"/>
<path d="M690.1 749.7L718.6 765.6L747.1 749.7V716L718.6 699.4L690.1 716V749.7Z" fill="url(#paint3_linear_49_106)"/>
<defs>
<linearGradient id="paint0_linear_49_106" x1="764.529" y1="759.585" x2="178.695" y2="992.612" gradientUnits="userSpaceOnUse">
<stop stop-color="#C200FB"/>
<stop offset="0.4897" stop-color="#3772FF"/>
<stop offset="0.4898" stop-color="#3773FE"/>
<stop offset="1" stop-color="#5AC4BE"/>
</linearGradient>
<linearGradient id="paint1_linear_49_106" x1="753.35" y1="731.481" x2="167.517" y2="964.509" gradientUnits="userSpaceOnUse">
<stop stop-color="#C200FB"/>
<stop offset="0.4897" stop-color="#3772FF"/>
<stop offset="0.4898" stop-color="#3773FE"/>
<stop offset="1" stop-color="#5AC4BE"/>
</linearGradient>
<linearGradient id="paint2_linear_49_106" x1="811.685" y1="878.143" x2="225.852" y2="1111.17" gradientUnits="userSpaceOnUse">
<stop stop-color="#C200FB"/>
<stop offset="0.4897" stop-color="#3772FF"/>
<stop offset="0.4898" stop-color="#3773FE"/>
<stop offset="1" stop-color="#5AC4BE"/>
</linearGradient>
<linearGradient id="paint3_linear_49_106" x1="748.937" y1="720.505" x2="163.105" y2="953.532" gradientUnits="userSpaceOnUse">
<stop stop-color="#C200FB"/>
<stop offset="0.4897" stop-color="#3772FF"/>
<stop offset="0.4898" stop-color="#3773FE"/>
<stop offset="1" stop-color="#5AC4BE"/>
</linearGradient>
</defs>
</svg>
